<svg xmlns="http://www.w3.org/2000/svg" viewBox="0 0 207.4 80" widt="207.4" height="80"><defs><style>.a{fill:red;}.b{fill:#fc0;}</style></defs><title>Logo_BMF_DE_EN_FR</title><path d="M58.632,3.726a3.115,3.115,0,0,1-.141.984,2.35,2.35,0,0,1-.383.726,2.018,2.018,0,0,1-.562.492,2.737,2.737,0,0,1-.664.281V6.241a2.372,2.372,0,0,1,.789.3,2.481,2.481,0,0,1,.64.547,2.6,2.6,0,0,1,.437.773,2.8,2.8,0,0,1,.164.976A3.047,3.047,0,0,1,58.695,10a2.389,2.389,0,0,1-.679.921,3.286,3.286,0,0,1-1.163.609,5.655,5.655,0,0,1-1.671.219h-2.2V0.978h2.077a5.968,5.968,0,0,1,1.632.2,3.075,3.075,0,0,1,1.117.554,2.071,2.071,0,0,1,.633.867A3.135,3.135,0,0,1,58.632,3.726Zm-1.374.047a1.6,1.6,0,0,0-.531-1.234,2.427,2.427,0,0,0-1.671-.484H54.337V5.772h0.7A2.326,2.326,0,0,0,56.7,5.241,1.922,1.922,0,0,0,57.258,3.773Zm0.2,4.966a1.757,1.757,0,0,0-.57-1.382,2.376,2.376,0,0,0-1.632-.508H54.337v3.78h0.843a2.6,2.6,0,0,0,1.741-.476A1.787,1.787,0,0,0,57.461,8.74Zm8.371,3.014H64.676V10.911H64.645a1.53,1.53,0,0,1-.2.273,2.037,2.037,0,0,1-.4.344,2.674,2.674,0,0,1-.586.289,2.225,2.225,0,0,1-.765.125,2.56,2.56,0,0,1-.9-0.148,1.634,1.634,0,0,1-.679-0.476,2.218,2.218,0,0,1-.429-0.851,4.788,4.788,0,0,1-.148-1.288V4.257H61.8V9.083a2.243,2.243,0,0,0,.3,1.335,1.114,1.114,0,0,0,.945.4,1.521,1.521,0,0,0,.921-0.273A3.23,3.23,0,0,0,64.567,10V4.257h1.265v7.5Zm6.028,0V6.928a2.266,2.266,0,0,0-.32-1.367,1.157,1.157,0,0,0-.976-0.414,1.518,1.518,0,0,0-.937.281,3.442,3.442,0,0,0-.593.547v5.779H67.769v-7.5h1.156V5.1h0.031a1.535,1.535,0,0,1,.2-0.273,1.956,1.956,0,0,1,.406-0.344A2.866,2.866,0,0,1,70.158,4.2a2.275,2.275,0,0,1,.781-0.125,2.626,2.626,0,0,1,.906.148,1.625,1.625,0,0,1,.687.476,2.3,2.3,0,0,1,.437.851,4.565,4.565,0,0,1,.156,1.289v4.92H71.861Zm2.811-3.639a5.307,5.307,0,0,1,.3-1.905,3.512,3.512,0,0,1,.765-1.234A2.669,2.669,0,0,1,76.8,4.312a3.782,3.782,0,0,1,1.187-.2,3.128,3.128,0,0,1,.625.055,2.085,2.085,0,0,1,.437.133V0.712l1.265-.141V11.754H79.154v-0.8H79.123a1.8,1.8,0,0,1-.172.258,1.743,1.743,0,0,1-.344.328,2.069,2.069,0,0,1-.547.281,2.274,2.274,0,0,1-.765.117,2.459,2.459,0,0,1-1.007-.211,2.174,2.174,0,0,1-.836-0.672,3.5,3.5,0,0,1-.57-1.187A6.366,6.366,0,0,1,74.672,8.115Zm2.967,2.7a1.674,1.674,0,0,0,.531-0.078,1.637,1.637,0,0,0,.406-0.2,1.726,1.726,0,0,0,.289-0.242,1.767,1.767,0,0,0,.18-0.219V5.46a1.889,1.889,0,0,0-.4-0.187,1.771,1.771,0,0,0-.57-0.078,2.25,2.25,0,0,0-.82.148,1.6,1.6,0,0,0-.664.492,2.546,2.546,0,0,0-.445.89,4.732,4.732,0,0,0-.164,1.343,5.4,5.4,0,0,0,.133,1.3,2.435,2.435,0,0,0,.367.843,1.418,1.418,0,0,0,.531.461A1.442,1.442,0,0,0,77.639,10.817Zm9.418-4.029q0,0.484-.031.835t-0.062.617H83.137a3.332,3.332,0,0,0,.57,1.952,1.773,1.773,0,0,0,1.46.625,2.1,2.1,0,0,0,.593-0.078,2.214,2.214,0,0,0,.789-0.406q0.133-.109.2-0.172l0.469,0.89q-0.078.078-.234,0.226a2.1,2.1,0,0,1-.422.3,3.026,3.026,0,0,1-.656.258,3.442,3.442,0,0,1-.921.109,3.319,3.319,0,0,1-1.273-.234,2.407,2.407,0,0,1-.968-0.726,3.509,3.509,0,0,1-.617-1.249A6.617,6.617,0,0,1,81.9,7.912a5.827,5.827,0,0,1,.227-1.726,3.447,3.447,0,0,1,.617-1.195,2.464,2.464,0,0,1,.906-0.7,2.726,2.726,0,0,1,1.109-.226,2.149,2.149,0,0,1,1.687.679A2.971,2.971,0,0,1,87.057,6.788ZM84.683,5.1a1.267,1.267,0,0,0-1.078.562,3.069,3.069,0,0,0-.469,1.624H85.87a1.7,1.7,0,0,0,.023-0.227q0.008-.148.008-0.32a2.03,2.03,0,0,0-.312-1.21A1.051,1.051,0,0,0,84.683,5.1Zm7.294,0.672a3.186,3.186,0,0,0-.453-0.383,1.412,1.412,0,0,0-.859-0.242,1.122,1.122,0,0,0-.765.234,0.725,0.725,0,0,0-.266.562,1.009,1.009,0,0,0,.242.695,3.423,3.423,0,0,0,.742.586l0.469,0.281a4.606,4.606,0,0,1,1.2.976,2.036,2.036,0,0,1,.437,1.351,2.025,2.025,0,0,1-.617,1.5,2.418,2.418,0,0,1-1.773.609,3.04,3.04,0,0,1-.8-0.094,3.476,3.476,0,0,1-.6-0.219,1.975,1.975,0,0,1-.43-0.273,2.848,2.848,0,0,1-.281-0.273l0.609-1q0.094,0.094.227,0.219a2.05,2.05,0,0,0,.32.242,1.967,1.967,0,0,0,.422.2,1.729,1.729,0,0,0,.547.078,1.3,1.3,0,0,0,.859-0.25,0.768,0.768,0,0,0,.3-0.609,1.361,1.361,0,0,0-.07-0.461,1.055,1.055,0,0,0-.211-0.351,1.964,1.964,0,0,0-.344-0.3q-0.2-.141-0.469-0.312l-0.469-.3a4.522,4.522,0,0,1-1.1-.953,1.992,1.992,0,0,1-.4-1.281,1.787,1.787,0,0,1,.625-1.382,2.243,2.243,0,0,1,.7-0.406,2.42,2.42,0,0,1,.851-0.148,2.858,2.858,0,0,1,.75.086,2.243,2.243,0,0,1,.539.219,2.345,2.345,0,0,1,.375.266q0.148,0.133.242,0.227Zm6.169,5.982V6.928A2.512,2.512,0,0,0,97.88,5.6a0.95,0.95,0,0,0-.859-0.406,1.8,1.8,0,0,0-.554.078,1.92,1.92,0,0,0-.43.2,1.841,1.841,0,0,0-.328.258q-0.141.141-.234,0.25v5.779H94.21v-7.5h1.156V5.1H95.4a2.555,2.555,0,0,1,.234-0.3,2.135,2.135,0,0,1,.39-0.344,2.233,2.233,0,0,1,.547-0.273,2.12,2.12,0,0,1,.7-0.109,1.882,1.882,0,0,1,1.812,1,2.331,2.331,0,0,1,.3-0.336,2.4,2.4,0,0,1,.437-0.328,2.51,2.51,0,0,1,.562-0.242,2.384,2.384,0,0,1,.687-0.094q2.28,0,2.28,2.655v5.029h-1.265V6.928a2.123,2.123,0,0,0-.328-1.328,1.171,1.171,0,0,0-.968-0.406,1.453,1.453,0,0,0-.882.258,3.384,3.384,0,0,0-.554.492,3.682,3.682,0,0,1,.047.367q0.016,0.2.016,0.414v5.029H98.145Zm8.356,0h-1.265v-7.5H106.5v7.5Zm-0.625-9.308a0.816,0.816,0,0,1-.625-0.25,0.92,0.92,0,0,1-.234-0.656A0.9,0.9,0,0,1,105.252.9a0.816,0.816,0,0,1,.625-0.25,0.8,0.8,0,0,1,.609.25,0.9,0.9,0,0,1,.234.64,0.92,0.92,0,0,1-.234.656A0.8,0.8,0,0,1,105.876,2.446Zm6.653,9.308V6.928a2.266,2.266,0,0,0-.32-1.367,1.157,1.157,0,0,0-.976-0.414,1.518,1.518,0,0,0-.937.281,3.443,3.443,0,0,0-.593.547v5.779h-1.265v-7.5h1.156V5.1h0.031a1.535,1.535,0,0,1,.2-0.273,1.957,1.957,0,0,1,.406-0.344,2.866,2.866,0,0,1,.593-0.289,2.275,2.275,0,0,1,.781-0.125,2.626,2.626,0,0,1,.906.148,1.625,1.625,0,0,1,.687.476,2.3,2.3,0,0,1,.437.851,4.566,4.566,0,0,1,.156,1.289v4.92h-1.265Zm4.42,0h-1.265v-7.5h1.265v7.5Zm-0.625-9.308A0.816,0.816,0,0,1,115.7,2.2a0.92,0.92,0,0,1-.234-0.656A0.9,0.9,0,0,1,115.7.9a0.816,0.816,0,0,1,.625-0.25,0.8,0.8,0,0,1,.609.25,0.9,0.9,0,0,1,.234.64,0.92,0.92,0,0,1-.234.656A0.8,0.8,0,0,1,116.325,2.446Zm5.794,3.327a3.185,3.185,0,0,0-.453-0.383,1.412,1.412,0,0,0-.859-0.242,1.122,1.122,0,0,0-.765.234,0.725,0.725,0,0,0-.265.562,1.009,1.009,0,0,0,.242.695,3.424,3.424,0,0,0,.742.586l0.469,0.281a4.606,4.606,0,0,1,1.2.976,2.036,2.036,0,0,1,.437,1.351,2.025,2.025,0,0,1-.617,1.5,2.418,2.418,0,0,1-1.773.609,3.04,3.04,0,0,1-.8-0.094,3.476,3.476,0,0,1-.6-0.219,1.975,1.975,0,0,1-.43-0.273,2.849,2.849,0,0,1-.281-0.273l0.609-1q0.094,0.094.227,0.219a2.049,2.049,0,0,0,.32.242,1.966,1.966,0,0,0,.422.2,1.729,1.729,0,0,0,.547.078,1.3,1.3,0,0,0,.859-0.25,0.768,0.768,0,0,0,.3-0.609,1.361,1.361,0,0,0-.07-0.461,1.055,1.055,0,0,0-.211-0.351,1.964,1.964,0,0,0-.344-0.3q-0.2-.141-0.469-0.312l-0.469-.3a4.522,4.522,0,0,1-1.1-.953,1.992,1.992,0,0,1-.4-1.281,1.787,1.787,0,0,1,.625-1.382,2.243,2.243,0,0,1,.7-0.406,2.42,2.42,0,0,1,.851-0.148,2.858,2.858,0,0,1,.75.086,2.243,2.243,0,0,1,.539.219,2.345,2.345,0,0,1,.375.266q0.148,0.133.242,0.227Zm5.435-.484h-1.64V9.443a2.031,2.031,0,0,0,.2,1.085,0.781,0.781,0,0,0,.687.289,1.348,1.348,0,0,0,.484-0.078,1.619,1.619,0,0,0,.3-0.141l0.172,1.015a2.161,2.161,0,0,1-.375.2,1.981,1.981,0,0,1-.8.133,1.853,1.853,0,0,1-1.452-.539,2.653,2.653,0,0,1-.484-1.788V5.288h-0.906V4.445l0.906-.187,0.141-2.093h1.124V4.257h1.8Zm6.138,1.5q0,0.484-.031.835T133.6,8.24h-3.826a3.332,3.332,0,0,0,.57,1.952,1.773,1.773,0,0,0,1.46.625,2.1,2.1,0,0,0,.593-0.078,2.214,2.214,0,0,0,.789-0.406q0.133-.109.2-0.172l0.469,0.89q-0.078.078-.234,0.226a2.1,2.1,0,0,1-.422.3,3.026,3.026,0,0,1-.656.258,3.442,3.442,0,0,1-.921.109,3.319,3.319,0,0,1-1.273-.234,2.407,2.407,0,0,1-.968-0.726,3.509,3.509,0,0,1-.617-1.249,6.617,6.617,0,0,1-.219-1.819,5.827,5.827,0,0,1,.227-1.726,3.447,3.447,0,0,1,.617-1.195,2.464,2.464,0,0,1,.906-0.7A2.726,2.726,0,0,1,131.4,4.07a2.149,2.149,0,0,1,1.687.679A2.971,2.971,0,0,1,133.692,6.788ZM131.318,5.1a1.267,1.267,0,0,0-1.078.562,3.069,3.069,0,0,0-.469,1.624H132.5a1.7,1.7,0,0,0,.024-0.227q0.008-.148.008-0.32a2.03,2.03,0,0,0-.312-1.21A1.051,1.051,0,0,0,131.318,5.1Zm7.356,0.265a0.9,0.9,0,0,0-.2-0.078,1.519,1.519,0,0,0-.422-0.047,1.292,1.292,0,0,0-.929.32,1.871,1.871,0,0,0-.476.7v5.5h-1.265v-7.5h1.156V5.273h0.031a2.474,2.474,0,0,1,.2-0.43,1.537,1.537,0,0,1,.312-0.375,1.388,1.388,0,0,1,.445-0.258,1.81,1.81,0,0,1,.617-0.094,1.609,1.609,0,0,1,.43.047q0.164,0.047.258,0.078Zm2.514,6.388h-1.265v-7.5h1.265v7.5Zm-0.625-9.308a0.816,0.816,0,0,1-.625-0.25A0.92,0.92,0,0,1,139.7,1.54,0.9,0.9,0,0,1,139.939.9a0.816,0.816,0,0,1,.625-0.25,0.8,0.8,0,0,1,.609.25,0.9,0.9,0,0,1,.234.64,0.92,0.92,0,0,1-.234.656A0.8,0.8,0,0,1,140.563,2.446Zm7.809,9.308h-1.156V10.911h-0.031a1.531,1.531,0,0,1-.2.273,2.037,2.037,0,0,1-.4.344,2.674,2.674,0,0,1-.586.289,2.225,2.225,0,0,1-.765.125,2.56,2.56,0,0,1-.9-0.148,1.634,1.634,0,0,1-.679-0.476,2.218,2.218,0,0,1-.429-0.851,4.788,4.788,0,0,1-.148-1.288V4.257h1.265V9.083a2.243,2.243,0,0,0,.3,1.335,1.114,1.114,0,0,0,.945.4,1.521,1.521,0,0,0,.921-0.273A3.231,3.231,0,0,0,147.107,10V4.257h1.265v7.5Zm5.872,0V6.928a2.512,2.512,0,0,0-.266-1.328,0.95,0.95,0,0,0-.859-0.406,1.8,1.8,0,0,0-.554.078,1.92,1.92,0,0,0-.43.2,1.841,1.841,0,0,0-.328.258q-0.141.141-.234,0.25v5.779h-1.265v-7.5h1.156V5.1H151.5a2.555,2.555,0,0,1,.234-0.3,2.135,2.135,0,0,1,.39-0.344,2.233,2.233,0,0,1,.547-0.273,2.12,2.12,0,0,1,.7-0.109,1.882,1.882,0,0,1,1.812,1,2.33,2.33,0,0,1,.3-0.336,2.4,2.4,0,0,1,.437-0.328,2.51,2.51,0,0,1,.562-0.242,2.384,2.384,0,0,1,.687-0.094q2.28,0,2.28,2.655v5.029H158.18V6.928a2.123,2.123,0,0,0-.328-1.328,1.171,1.171,0,0,0-.968-0.406,1.453,1.453,0,0,0-.882.258,3.383,3.383,0,0,0-.554.492,3.685,3.685,0,0,1,.047.367q0.016,0.2.016,0.414v5.029h-1.265ZM52.37,23.864a5.307,5.307,0,0,1,.3-1.905,3.512,3.512,0,0,1,.765-1.234,2.669,2.669,0,0,1,1.062-.664,3.782,3.782,0,0,1,1.187-.2,3.128,3.128,0,0,1,.625.055,2.084,2.084,0,0,1,.437.133V16.461l1.265-.141V27.5H56.852v-0.8H56.821a1.8,1.8,0,0,1-.172.258,1.743,1.743,0,0,1-.344.328,2.069,2.069,0,0,1-.547.281,2.274,2.274,0,0,1-.765.117,2.459,2.459,0,0,1-1.007-.211,2.174,2.174,0,0,1-.836-0.672,3.5,3.5,0,0,1-.57-1.187A6.366,6.366,0,0,1,52.37,23.864Zm2.967,2.7a1.674,1.674,0,0,0,.531-0.078,1.638,1.638,0,0,0,.406-0.2,1.727,1.727,0,0,0,.289-0.242,1.768,1.768,0,0,0,.18-0.219V21.209a1.888,1.888,0,0,0-.4-0.187,1.771,1.771,0,0,0-.57-0.078,2.249,2.249,0,0,0-.82.148,1.6,1.6,0,0,0-.664.492,2.546,2.546,0,0,0-.445.89,4.733,4.733,0,0,0-.164,1.343,5.4,5.4,0,0,0,.133,1.3,2.435,2.435,0,0,0,.367.843,1.418,1.418,0,0,0,.531.461A1.442,1.442,0,0,0,55.337,26.566Zm9.418-4.029q0,0.484-.031.835t-0.062.617H60.834a3.332,3.332,0,0,0,.57,1.952,1.773,1.773,0,0,0,1.46.625,2.1,2.1,0,0,0,.593-0.078,2.214,2.214,0,0,0,.789-0.406q0.133-.109.2-0.172l0.469,0.89q-0.078.078-.234,0.226a2.1,2.1,0,0,1-.422.3,3.026,3.026,0,0,1-.656.258,3.442,3.442,0,0,1-.921.109,3.319,3.319,0,0,1-1.273-.234,2.407,2.407,0,0,1-.968-0.726,3.509,3.509,0,0,1-.617-1.249,6.617,6.617,0,0,1-.219-1.819,5.826,5.826,0,0,1,.227-1.726,3.447,3.447,0,0,1,.617-1.195,2.464,2.464,0,0,1,.906-0.7,2.726,2.726,0,0,1,1.109-.226,2.149,2.149,0,0,1,1.687.679A2.971,2.971,0,0,1,64.755,22.537ZM62.381,20.85a1.267,1.267,0,0,0-1.078.562,3.069,3.069,0,0,0-.469,1.624h2.733a1.7,1.7,0,0,0,.023-0.227q0.008-.148.008-0.32a2.03,2.03,0,0,0-.312-1.21A1.051,1.051,0,0,0,62.381,20.85Zm7.356,0.265a0.9,0.9,0,0,0-.2-0.078,1.519,1.519,0,0,0-.422-0.047,1.292,1.292,0,0,0-.929.32,1.871,1.871,0,0,0-.476.7v5.5H66.441v-7.5H67.6v1.015h0.031a2.473,2.473,0,0,1,.2-0.43,1.537,1.537,0,0,1,.312-0.375,1.388,1.388,0,0,1,.445-0.258,1.81,1.81,0,0,1,.617-0.094,1.609,1.609,0,0,1,.43.047q0.164,0.047.258,0.078ZM74.2,27.5V16.727H79.5L79.4,17.8H75.562v3.983h3.545v1.078H75.562V27.5H74.2Zm7.965,0H80.9v-7.5h1.265v7.5Zm-0.625-9.308a0.816,0.816,0,0,1-.625-0.25,0.92,0.92,0,0,1-.234-0.656,0.9,0.9,0,0,1,.234-0.64,0.816,0.816,0,0,1,.625-0.25,0.8,0.8,0,0,1,.609.25,0.9,0.9,0,0,1,.234.64,0.92,0.92,0,0,1-.234.656A0.8,0.8,0,0,1,81.544,18.195ZM88.2,27.5V22.677a2.266,2.266,0,0,0-.32-1.367A1.157,1.157,0,0,0,86.9,20.9a1.518,1.518,0,0,0-.937.281,3.442,3.442,0,0,0-.593.547V27.5H84.1v-7.5h1.156V20.85h0.031a1.535,1.535,0,0,1,.2-0.273,1.957,1.957,0,0,1,.406-0.344,2.866,2.866,0,0,1,.593-0.289,2.275,2.275,0,0,1,.781-0.125,2.626,2.626,0,0,1,.906.148,1.625,1.625,0,0,1,.687.476,2.3,2.3,0,0,1,.437.851,4.566,4.566,0,0,1,.156,1.289V27.5H88.2ZM90.914,25.6a2.178,2.178,0,0,1,.25-1.093,2.043,2.043,0,0,1,.672-0.711,2.866,2.866,0,0,1,.992-0.39,6,6,0,0,1,1.21-.117h0.39V22.568a1.94,1.94,0,0,0-.336-1.312,1.23,1.23,0,0,0-.945-0.359,1.7,1.7,0,0,0-.937.242,5.624,5.624,0,0,0-.593.43l-0.531-.843a3.921,3.921,0,0,1,.32-0.281,2.681,2.681,0,0,1,.476-0.3,3.283,3.283,0,0,1,.64-0.234,3.223,3.223,0,0,1,.812-0.094,2.269,2.269,0,0,1,1.749.64,2.974,2.974,0,0,1,.593,2.062v3.42q0,0.484.031,0.945a5.893,5.893,0,0,0,.062.617h-1.2l-0.047-.828H94.491A1.993,1.993,0,0,1,94.3,27a1.544,1.544,0,0,1-.312.328,1.877,1.877,0,0,1-.453.258,1.635,1.635,0,0,1-.625.109,1.993,1.993,0,0,1-.789-0.156,1.938,1.938,0,0,1-1.062-1.1A2.29,2.29,0,0,1,90.914,25.6Zm2.265,1.015a1.3,1.3,0,0,0,.469-0.078A1.5,1.5,0,0,0,94,26.347a1.23,1.23,0,0,0,.25-0.242q0.1-.133.18-0.226V24.223l-0.406.016a2.91,2.91,0,0,0-1.374.312,0.976,0.976,0,0,0-.469.906,1.242,1.242,0,0,0,.266.867A0.947,0.947,0,0,0,93.179,26.613Zm8.5,0.89V22.677a2.266,2.266,0,0,0-.32-1.367,1.157,1.157,0,0,0-.976-0.414,1.518,1.518,0,0,0-.937.281,3.442,3.442,0,0,0-.593.547V27.5H97.583v-7.5h1.156V20.85H98.77a1.535,1.535,0,0,1,.2-0.273,1.957,1.957,0,0,1,.406-0.344,2.866,2.866,0,0,1,.593-0.289,2.275,2.275,0,0,1,.781-0.125,2.626,2.626,0,0,1,.906.148,1.625,1.625,0,0,1,.687.476,2.3,2.3,0,0,1,.437.851,4.566,4.566,0,0,1,.156,1.289V27.5h-1.265Zm7.34-6.684-3.03,5.576v0.031h3.233L109.109,27.5h-4.763V26.691l3.124-5.622V21.037h-2.952V20.007h4.5v0.812Zm6.325,1.718q0,0.484-.031.835t-0.062.617h-3.826a3.332,3.332,0,0,0,.57,1.952,1.773,1.773,0,0,0,1.46.625,2.1,2.1,0,0,0,.593-0.078,2.214,2.214,0,0,0,.789-0.406q0.133-.109.2-0.172L115.5,26.8q-0.078.078-.234,0.226a2.1,2.1,0,0,1-.422.3,3.026,3.026,0,0,1-.656.258,3.442,3.442,0,0,1-.921.109,3.319,3.319,0,0,1-1.273-.234,2.407,2.407,0,0,1-.968-0.726,3.509,3.509,0,0,1-.617-1.249,6.617,6.617,0,0,1-.219-1.819,5.827,5.827,0,0,1,.227-1.726,3.447,3.447,0,0,1,.617-1.195,2.464,2.464,0,0,1,.906-0.7,2.726,2.726,0,0,1,1.109-.226,2.149,2.149,0,0,1,1.687.679A2.971,2.971,0,0,1,115.341,22.537Zm-2.374-1.687a1.267,1.267,0,0,0-1.078.562,3.069,3.069,0,0,0-.469,1.624h2.733a1.7,1.7,0,0,0,.023-0.227q0.008-.148.008-0.32a2.03,2.03,0,0,0-.312-1.21A1.051,1.051,0,0,0,112.967,20.85Zm8.153,6.653V22.677a2.266,2.266,0,0,0-.32-1.367,1.157,1.157,0,0,0-.976-0.414,1.518,1.518,0,0,0-.937.281,3.442,3.442,0,0,0-.593.547V27.5h-1.265v-7.5h1.156V20.85h0.031a1.535,1.535,0,0,1,.2-0.273,1.957,1.957,0,0,1,.406-0.344,2.866,2.866,0,0,1,.593-0.289,2.275,2.275,0,0,1,.781-0.125,2.626,2.626,0,0,1,.906.148,1.625,1.625,0,0,1,.687.476,2.3,2.3,0,0,1,.437.851,4.566,4.566,0,0,1,.156,1.289V27.5h-1.265Z"/><path d="M18.505,10.887a7.578,7.578,0,0,0,.056-0.907c0-.169,0-0.366-0.02-0.589,2.616-.037,4.91-1.921,4.91-4.088A3.923,3.923,0,0,0,22.327,2.87q0.136-.03.276-0.063a4.389,4.389,0,0,1,1.47,3.012c0,2.6-2.6,5.013-5.567,5.067M15.87,1.832a1.784,1.784,0,0,0-.327-0.778c0.009-.265.118-0.518,0.545-0.31a0.67,0.67,0,0,0-.052.655A0.566,0.566,0,0,0,16.409.868c0.7,0.168.2,1.109-.539,0.965M15.262,3.167a2.74,2.74,0,0,0-.546-1.088,1.514,1.514,0,0,0-1.127-.6,2.764,2.764,0,0,0-.879.217A2.406,2.406,0,0,1,12.434.932c0-.19.322-0.383,0.937-0.383,1.354,0,2.163.612,2.163,1.638a2.446,2.446,0,0,1-.272.98M18.74,20.622a0.8,0.8,0,0,1,.325.059,18.56,18.56,0,0,0,1.956,3.147l0.013,0.018,0.022-.005a14.691,14.691,0,0,1,2.1-.2h0.018a0.34,0.34,0,0,1,.244.06,0.373,0.373,0,0,1,.076.268,1.494,1.494,0,0,1-.182.673,1.847,1.847,0,0,0-1.44-.436,2.574,2.574,0,0,0-.608.1l-0.056.012-0.064.017,0.413,0.413A3.609,3.609,0,0,1,22.744,26.3a0.925,0.925,0,0,1-.412.635,3.507,3.507,0,0,0-1.381-2.071L20.9,24.826l-0.01.236c-0.009.16-.024,0.4-0.024,0.658,0,1.277-.13,1.471-0.572,1.471a0.807,0.807,0,0,1-.236-0.043,2.138,2.138,0,0,0,.348-1.429l0-.329,0-.265a4.708,4.708,0,0,1,.054-0.684l0.013-.1-0.07-.009a7.164,7.164,0,0,0-.886-0.081,1.879,1.879,0,0,0-1.369.349,1.083,1.083,0,0,1-.415-0.63c0-.266.165-0.287,0.383-0.287a2.986,2.986,0,0,1,.354.033,9.138,9.138,0,0,0,1.521.1h0.052l-0.017-.051a10.205,10.205,0,0,0-1.736-2.638,0.5,0.5,0,0,1,.462-0.505m-8.1,3.143-0.017.051h0.052a9.151,9.151,0,0,0,1.521-.1,2.986,2.986,0,0,1,.354-0.033c0.217,0,.383.021,0.383,0.287a1.087,1.087,0,0,1-.413.63,1.883,1.883,0,0,0-1.369-.349,7.139,7.139,0,0,0-.887.081l-0.033,0-0.037.005,0.012,0.1a4.5,4.5,0,0,1,.055.684l0,0.265,0,0.329a2.129,2.129,0,0,0,.349,1.429,0.824,0.824,0,0,1-.238.043c-0.444,0-.572-0.194-0.572-1.471,0-.257-0.013-0.5-0.022-0.658l-0.013-.238L9.7,24.868a3.5,3.5,0,0,0-1.379,2.071A0.923,0.923,0,0,1,7.907,26.3,3.609,3.609,0,0,1,9.1,24.75l0.366-.366,0.047-.047-0.121-.029a2.574,2.574,0,0,0-.609-0.1,1.848,1.848,0,0,0-1.438.436,1.494,1.494,0,0,1-.182-0.673A0.373,0.373,0,0,1,7.235,23.7a0.34,0.34,0,0,1,.244-0.06H7.5a14.67,14.67,0,0,1,2.1.2l0.022,0.005,0.013-.018a18.544,18.544,0,0,0,1.957-3.147,0.784,0.784,0,0,1,.324-0.059,0.5,0.5,0,0,1,.463.505,10.184,10.184,0,0,0-1.738,2.638M6.579,5.819A4.39,4.39,0,0,1,8.05,2.807q0.138,0.033.276,0.063A3.917,3.917,0,0,0,7.2,5.3c0,2.189,2.339,4.09,4.987,4.09-0.017.188-.026,0.385-0.026,0.588a8.18,8.18,0,0,0,.05.907c-2.995-.018-5.632-2.449-5.632-5.067M26.667,10.43c1.344,2.125,2.4,2.089,3.983,2.089a11.358,11.358,0,0,1-2.6-2.956L25.6,5.637a5.808,5.808,0,0,0-1.806-3.19,3.152,3.152,0,0,0,.736-0.365c-1.6,0-3.19-.814-4.065-0.814a0.821,0.821,0,0,0-.923.78,1.3,1.3,0,0,0,1.486,1,5.011,5.011,0,0,0,.785-0.077,3.738,3.738,0,0,1,.92,2.268c0,1.719-2.055,3.059-4.13,3.059-0.118,0-.23-0.005-0.346-0.013a4.658,4.658,0,0,1-.814-1.956c0-1.366.891-2.482,0.891-3.835A2.537,2.537,0,0,0,17.766.912a2.4,2.4,0,0,0,.6-0.726,1.468,1.468,0,0,1-.58.072C16.79,0.259,15.979,0,15.189,0c-0.451,0-.572.139-0.572,0.272a0.3,0.3,0,0,0,.02.122A2.661,2.661,0,0,0,14.123.251,4.008,4.008,0,0,0,13.371.184c-0.961,0-1.3.4-1.3,0.748a2.929,2.929,0,0,0,.491,1.231,2.909,2.909,0,0,1,1.029-.316,1.512,1.512,0,0,1,1.2,1.06,4.534,4.534,0,0,1-.755.056,5.761,5.761,0,0,1-1.7-.335,0.034,0.034,0,0,0-.037.028,1.158,1.158,0,0,0,.787.668,10.313,10.313,0,0,0,1.893.386,0.824,0.824,0,0,1-.37.419,0.212,0.212,0,0,1-.122,0,8.608,8.608,0,0,1-1.832-.549,0.032,0.032,0,0,0-.045.035A3.053,3.053,0,0,0,14.38,5.083a9.367,9.367,0,0,0-1.984,3.2c-0.117.008-.23,0.013-0.346,0.013-2.075,0-4.13-1.34-4.13-3.059a3.738,3.738,0,0,1,.92-2.268,5,5,0,0,0,.785.077,1.306,1.306,0,0,0,1.487-1,0.822,0.822,0,0,0-.924-0.78c-0.874,0-2.461.814-4.066,0.814a3.206,3.206,0,0,0,.736.365,5.814,5.814,0,0,0-1.8,3.19L2.6,9.564A11.343,11.343,0,0,1,0,12.519c1.588,0,2.641.035,3.985-2.089L5.243,8.417a5.436,5.436,0,0,0,.343.765l-2.5,4a11.314,11.314,0,0,1-2.6,2.956c1.588,0,2.641.037,3.985-2.087l2.154-3.449c0.161,0.172.331,0.34,0.509,0.5l-3.04,4.866a11.235,11.235,0,0,1-2.6,2.953c1.588,0,2.641.038,3.983-2.087l2.963-4.744c0.2,0.123.4,0.243,0.6,0.356L5.426,18.239a11.3,11.3,0,0,1-2.6,2.953c1.588,0,2.641.037,3.985-2.087l3.725-5.962c0.22,0.084.444,0.165,0.671,0.238L7,20.117A11.354,11.354,0,0,1,4.4,23.07c1.587,0,2.641.037,3.983-2.087L12.872,13.8c0.046,0.008.091,0.014,0.135,0.024a3.726,3.726,0,0,1,.207,1.112c0,2.256-1.48,4.248-3.257,5.786a1.418,1.418,0,0,0,.495.067,4.621,4.621,0,0,0,.77-0.049A18.321,18.321,0,0,1,9.48,23.513,12.971,12.971,0,0,0,7.5,23.327a0.553,0.553,0,0,0-.646.642,1.524,1.524,0,0,0,.533,1.179c0.108-.269.324-0.629,1.4-0.629,0.021,0,.058,0,0.108.007-0.312.348-1.293,1.14-1.293,1.778A1.17,1.17,0,0,0,8.669,27.36,1.339,1.339,0,0,1,8.637,27a2.752,2.752,0,0,1,.845-1.545,1.836,1.836,0,0,0-.005.26c0,1.222.11,1.784,0.886,1.784a1.237,1.237,0,0,0,.734-0.272,1.663,1.663,0,0,1-.53-1.513c0-.178,0-0.353.005-0.593a3.328,3.328,0,0,0-.026-0.514,3.568,3.568,0,0,1,.6-0.038,1.567,1.567,0,0,1,1.368.486,1.784,1.784,0,0,0,.734-1.088,0.585,0.585,0,0,0-.7-0.6c-0.215,0-.891.131-1.457,0.131a14.259,14.259,0,0,1,1.415-2.045,1.641,1.641,0,0,0,.534.826A5.832,5.832,0,0,1,14.076,19.5a13.629,13.629,0,0,1,.2,2.417c0,3.037-.73,5.28-2.28,5.708a1.329,1.329,0,0,0,1.071.667,1.744,1.744,0,0,0,1.19-1.247c0.164,0.446.617,1.541,1.071,1.541S16.233,27.5,16.4,27.049a1.742,1.742,0,0,0,1.19,1.247,1.329,1.329,0,0,0,1.071-.667c-1.55-.428-2.281-2.671-2.281-5.708a13.629,13.629,0,0,1,.2-2.417,5.79,5.79,0,0,1,1.036,2.777,1.627,1.627,0,0,0,.535-0.826A14.37,14.37,0,0,1,19.56,23.5c-0.566,0-1.243-.131-1.457-0.131a0.584,0.584,0,0,0-.7.6,1.784,1.784,0,0,0,.734,1.088,1.565,1.565,0,0,1,1.368-.486,3.583,3.583,0,0,1,.6.038,3.172,3.172,0,0,0-.026.514c0,0.24,0,.415,0,0.593a1.664,1.664,0,0,1-.53,1.513,1.237,1.237,0,0,0,.734.272c0.776,0,.887-0.562.887-1.784a2.038,2.038,0,0,0-.007-0.26A2.752,2.752,0,0,1,22.015,27a1.244,1.244,0,0,1-.033.356A1.171,1.171,0,0,0,23.058,26.3c0-.638-0.98-1.431-1.3-1.778,0.051,0,.088-0.007.108-0.007,1.072,0,1.289.36,1.4,0.629a1.524,1.524,0,0,0,.533-1.179,0.553,0.553,0,0,0-.646-0.642,12.986,12.986,0,0,0-1.982.186,18.321,18.321,0,0,1-1.743-2.769,4.633,4.633,0,0,0,.77.049,1.413,1.413,0,0,0,.495-0.067c-1.777-1.538-3.257-3.53-3.257-5.786a3.726,3.726,0,0,1,.207-1.112c0.043-.009.091-0.016,0.135-0.024l4.486,7.179c1.343,2.123,2.4,2.087,3.983,2.087a11.354,11.354,0,0,1-2.6-2.953l-4.21-6.737c0.228-.072.453-0.154,0.673-0.238L23.839,19.1c1.344,2.123,2.4,2.087,3.985,2.087a11.3,11.3,0,0,1-2.6-2.953L21.609,12.45c0.2-.113.406-0.232,0.6-0.356l2.965,4.744c1.344,2.125,2.4,2.087,3.983,2.087a11.26,11.26,0,0,1-2.6-2.953l-3.04-4.866c0.178-.16.349-0.328,0.508-0.5l2.156,3.449c1.343,2.123,2.4,2.087,3.983,2.087a11.314,11.314,0,0,1-2.6-2.956l-2.5-4a5.754,5.754,0,0,0,.343-0.765Z"/><path d="M43.214,27.5H38.621V1.255h4.593V27.5Z"/><path class="a" d="M43.214,53.752H38.621V27.5h4.593V53.752Z"/><path class="b" d="M43.214,80H38.621V53.752h4.593V80Z"/></svg>