<?xml version="1.0" encoding="UTF-8"?>
<svg width="72px" height="88px" viewBox="0 0 72 88" version="1.1" xmlns="http://www.w3.org/2000/svg" xmlns:xlink="http://www.w3.org/1999/xlink">
    <!-- Generator: Sketch 52.6 (67491) - http://www.bohemiancoding.com/sketch -->
    <title>34) icon/file</title>
    <desc>Created with Sketch.</desc>
    <defs>
        <path d="M83.6,34.4 C83.2,34 83.2,33.6 82.8,33.2 L54.8,5.2 C54.4,4.8 54,4.4 53.6,4.4 C53.2,4 52.4,4 52,4 L24,4 C17.2,4 12,9.2 12,16 L12,80 C12,86.8 17.2,92 24,92 L72,92 C78.8,92 84,86.8 84,80 L84,36 C84,35.6 84,34.8 83.6,34.4 Z M56,17.6 L70.4,32 L56,32 L56,17.6 Z M72,84 L24,84 C21.6,84 20,82.4 20,80 L20,16 C20,13.6 21.6,12 24,12 L48,12 L48,36 C48,38.4 49.6,40 52,40 L76,40 L76,80 C76,82.4 74.4,84 72,84 Z" id="path-1"></path>
    </defs>
    <g id="Track-and-Trace" stroke="none" stroke-width="1" fill="none" fill-rule="evenodd">
        <g id="34)-icon/file" transform="translate(-12.000000, -4.000000)">
            <mask id="mask-2" fill="white">
                <use xlink:href="#path-1"></use>
            </mask>
            <use id="Mask" fill="#000000" fill-rule="nonzero" xlink:href="#path-1"></use>
            <g id="32)-Shape/14)-Icon-Color-Symbol" mask="url(#mask-2)" fill="#43856B" fill-rule="evenodd">
                <rect id="🎨-Icon-Color" x="0" y="0" width="96" height="96"></rect>
            </g>
        </g>
    </g>
</svg>